v 0.000000 0.000000 -0.040000
v -0.065778 0.023941 -0.040000
v -0.067615 0.018117 -0.040000
v -0.068937 0.012155 -0.040000
v -0.069734 0.006101 -0.040000
v -0.070000 0.000000 -0.040000
v -0.069734 -0.006101 -0.040000
v -0.068937 -0.012155 -0.040000
v -0.067615 -0.018117 -0.040000
v -0.065778 -0.023941 -0.040000
v -0.063442 -0.029583 -0.040000
v -0.060622 -0.035000 -0.040000
v -0.057341 -0.040150 -0.040000
v -0.053623 -0.044995 -0.040000
v -0.049497 -0.049497 -0.040000
v -0.044995 -0.053623 -0.040000
v -0.040150 -0.057341 -0.040000
v -0.035000 -0.060622 -0.040000
v -0.029583 -0.063442 -0.040000
v -0.023941 -0.065778 -0.040000
v -0.018117 -0.067615 -0.040000
v -0.012155 -0.068937 -0.040000
v -0.006101 -0.069734 -0.040000
v -0.000000 -0.070000 -0.040000
v 0.006101 -0.069734 -0.040000
v 0.012155 -0.068937 -0.040000
v 0.018117 -0.067615 -0.040000
v 0.023941 -0.065778 -0.040000
v 0.029583 -0.063442 -0.040000
v 0.035000 -0.060622 -0.040000
v 0.040150 -0.057341 -0.040000
v 0.044995 -0.053623 -0.040000
v 0.049497 -0.049497 -0.040000
v 0.053623 -0.044995 -0.040000
v 0.057341 -0.040150 -0.040000
v 0.060622 -0.035000 -0.040000
v 0.063442 -0.029583 -0.040000
v 0.065778 -0.023941 -0.040000
v 0.067615 -0.018117 -0.040000
v 0.068937 -0.012155 -0.040000
v 0.069734 -0.006101 -0.040000
v 0.070000 -0.000000 -0.040000
v 0.069734 0.006101 -0.040000
v 0.068937 0.012155 -0.040000
v 0.067615 0.018117 -0.040000
v 0.065778 0.023941 -0.040000
v 0.000000 0.000000 0.040000
v -0.065778 0.023941 0.040000
v -0.067615 0.018117 0.040000
v -0.068937 0.012155 0.040000
v -0.069734 0.006101 0.040000
v -0.070000 0.000000 0.040000
v -0.069734 -0.006101 0.040000
v -0.068937 -0.012155 0.040000
v -0.067615 -0.018117 0.040000
v -0.065778 -0.023941 0.040000
v -0.063442 -0.029583 0.040000
v -0.060622 -0.035000 0.040000
v -0.057341 -0.040150 0.040000
v -0.053623 -0.044995 0.040000
v -0.049497 -0.049497 0.040000
v -0.044995 -0.053623 0.040000
v -0.040150 -0.057341 0.040000
v -0.035000 -0.060622 0.040000
v -0.029583 -0.063442 0.040000
v -0.023941 -0.065778 0.040000
v -0.018117 -0.067615 0.040000
v -0.012155 -0.068937 0.040000
v -0.006101 -0.069734 0.040000
v -0.000000 -0.070000 0.040000
v 0.006101 -0.069734 0.040000
v 0.012155 -0.068937 0.040000
v 0.018117 -0.067615 0.040000
v 0.023941 -0.065778 0.040000
v 0.029583 -0.063442 0.040000
v 0.035000 -0.060622 0.040000
v 0.040150 -0.057341 0.040000
v 0.044995 -0.053623 0.040000
v 0.049497 -0.049497 0.040000
v 0.053623 -0.044995 0.040000
v 0.057341 -0.040150 0.040000
v 0.060622 -0.035000 0.040000
v 0.063442 -0.029583 0.040000
v 0.065778 -0.023941 0.040000
v 0.067615 -0.018117 0.040000
v 0.068937 -0.012155 0.040000
v 0.069734 -0.006101 0.040000
v 0.070000 -0.000000 0.040000
v 0.069734 0.006101 0.040000
v 0.068937 0.012155 0.040000
v 0.067615 0.018117 0.040000
v 0.065778 0.023941 0.040000
f 1 3 2
f 47 48 49
f 1 4 3
f 47 49 50
f 1 5 4
f 47 50 51
f 1 6 5
f 47 51 52
f 1 7 6
f 47 52 53
f 1 8 7
f 47 53 54
f 1 9 8
f 47 54 55
f 1 10 9
f 47 55 56
f 1 11 10
f 47 56 57
f 1 12 11
f 47 57 58
f 1 13 12
f 47 58 59
f 1 14 13
f 47 59 60
f 1 15 14
f 47 60 61
f 1 16 15
f 47 61 62
f 1 17 16
f 47 62 63
f 1 18 17
f 47 63 64
f 1 19 18
f 47 64 65
f 1 20 19
f 47 65 66
f 1 21 20
f 47 66 67
f 1 22 21
f 47 67 68
f 1 23 22
f 47 68 69
f 1 24 23
f 47 69 70
f 1 25 24
f 47 70 71
f 1 26 25
f 47 71 72
f 1 27 26
f 47 72 73
f 1 28 27
f 47 73 74
f 1 29 28
f 47 74 75
f 1 30 29
f 47 75 76
f 1 31 30
f 47 76 77
f 1 32 31
f 47 77 78
f 1 33 32
f 47 78 79
f 1 34 33
f 47 79 80
f 1 35 34
f 47 80 81
f 1 36 35
f 47 81 82
f 1 37 36
f 47 82 83
f 1 38 37
f 47 83 84
f 1 39 38
f 47 84 85
f 1 40 39
f 47 85 86
f 1 41 40
f 47 86 87
f 1 42 41
f 47 87 88
f 1 43 42
f 47 88 89
f 1 44 43
f 47 89 90
f 1 45 44
f 47 90 91
f 1 46 45
f 47 91 92
f 2 3 49 48
f 3 4 50 49
f 4 5 51 50
f 5 6 52 51
f 6 7 53 52
f 7 8 54 53
f 8 9 55 54
f 9 10 56 55
f 10 11 57 56
f 11 12 58 57
f 12 13 59 58
f 13 14 60 59
f 14 15 61 60
f 15 16 62 61
f 16 17 63 62
f 17 18 64 63
f 18 19 65 64
f 19 20 66 65
f 20 21 67 66
f 21 22 68 67
f 22 23 69 68
f 23 24 70 69
f 24 25 71 70
f 25 26 72 71
f 26 27 73 72
f 27 28 74 73
f 28 29 75 74
f 29 30 76 75
f 30 31 77 76
f 31 32 78 77
f 32 33 79 78
f 33 34 80 79
f 34 35 81 80
f 35 36 82 81
f 36 37 83 82
f 37 38 84 83
f 38 39 85 84
f 39 40 86 85
f 40 41 87 86
f 41 42 88 87
f 42 43 89 88
f 43 44 90 89
f 44 45 91 90
f 45 46 92 91
f 1 2 48 47
f 46 1 47 92
